<?xml version="1.0" standalone="no"?>
<!DOCTYPE svg PUBLIC "-//W3C//DTD SVG 20010904//EN"
 "http://www.w3.org/TR/2001/REC-SVG-20010904/DTD/svg10.dtd">
<svg version="1.0" xmlns="http://www.w3.org/2000/svg"
 width="600.000000pt" height="600.000000pt" viewBox="0 0 600.000000 600.000000"
 preserveAspectRatio="xMidYMid meet">
<metadata>
Created by potrace 1.14, written by Peter Selinger 2001-2017
</metadata>
<g transform="translate(0.000000,600.000000) scale(0.100000,-0.100000)"
fill="#000000" stroke="none">
<path d="M3765 5344 c-200 -30 -256 -41 -353 -70 -502 -152 -888 -488 -1136
-988 -36 -72 -86 -157 -111 -189 -84 -106 -228 -194 -364 -223 -312 -66 -631
116 -742 423 l-28 78 0 -65 c-1 -149 47 -432 109 -643 235 -797 812 -1443
1573 -1762 141 -58 421 -144 433 -132 2 2 -24 24 -58 48 -85 59 -246 216 -327
319 -509 645 -545 1543 -88 2225 246 368 603 627 1032 750 163 47 263 59 485
59 175 0 222 -3 320 -23 140 -28 306 -80 420 -133 100 -46 96 -41 -27 40 -189
123 -407 212 -637 258 -92 19 -162 25 -296 29 -96 2 -188 1 -205 -1z"/>
<path d="M1614 4849 c-100 -18 -194 -91 -235 -182 -32 -72 -33 -182 -1 -252
30 -66 102 -138 166 -167 64 -28 159 -30 233 -4 65 22 140 88 173 152 22 42
25 62 25 144 0 104 -15 145 -74 213 -63 71 -187 113 -287 96z"/>
<path d="M3884 4814 c-178 -29 -384 -114 -517 -212 -141 -103 -265 -232 -336
-349 -14 -24 -28 -43 -31 -43 -3 0 -22 26 -43 59 -51 79 -101 136 -114 128
-20 -13 -113 -156 -166 -258 -187 -355 -248 -763 -172 -1145 93 -466 363 -857
880 -1274 135 -109 132 -102 45 -95 -149 12 -317 36 -430 61 -338 75 -695 242
-982 460 -127 96 -388 355 -493 487 -365 463 -592 1033 -614 1537 l-6 145 -43
-65 c-127 -193 -201 -430 -207 -670 -4 -144 6 -235 40 -371 124 -487 465
-1010 1025 -1570 401 -401 841 -747 1212 -953 l67 -37 40 21 c190 96 564 361
821 580 732 623 1253 1310 1420 1872 48 160 64 268 63 423 0 222 -41 394 -140
588 -221 433 -654 700 -1128 696 -60 -1 -147 -7 -191 -15z m426 -804 c18 -18
20 -33 20 -191 0 -98 4 -178 10 -190 10 -18 23 -19 174 -19 169 0 219 -9 236
-40 6 -10 10 -91 10 -180 0 -158 -1 -161 -25 -185 -24 -25 -27 -25 -199 -25
-222 0 -206 17 -206 -216 0 -220 11 -208 -187 -212 -161 -4 -184 -1 -213 28
-18 18 -20 34 -20 191 0 98 -4 178 -10 190 -10 18 -23 19 -189 19 -240 0 -225
-14 -229 203 -3 163 -3 165 21 193 l25 29 178 3 c106 2 184 8 191 14 10 8 13
56 13 183 0 159 2 174 21 199 l20 26 170 0 c156 0 171 -2 189 -20z"/>
</g>
</svg>
