<!-- icon666.com - MILLIONS vector ICONS FREE --><svg viewBox="-14 0 426 426.254" xmlns="http://www.w3.org/2000/svg"><path d="m361.515625 305.789062h-111.195313c-5.117187 0-9.265624-4.148437-9.265624-9.265624v-27.796876c0-5.117187 4.148437-9.269531 9.265624-9.269531h9.265626l-.003907-100.789062c-.003906-.171875-.011719-.339844-.011719-.511719-.070312-4.660156 3.332032-8.644531 7.949219-9.308594 2.714844-.386718 5.449219-.585937 8.128907-.585937h38.300781c31.339843 0 56.835937 25.496093 56.835937 56.832031v91.429688c0 5.117187-4.152344 9.265624-9.269531 9.265624zm-101.929687-18.53125h92.664062v-82.160156c0-21.121094-17.183594-38.300781-38.300781-38.300781h-35.832031v101.929687c0 5.117188-4.148438 9.265626-9.265626 9.265626h-9.265624zm0 0"/><path d="m268.851562 277.992188h-148.261718c-5.117188 0-9.265625-4.148438-9.265625-9.265626v-109.960937c0-31.339844 25.496093-56.835937 56.832031-56.835937h53.128906c15.023438 0 29.191406 5.8125 39.890625 16.359374 10.683594 10.535157 16.691407 24.597657 16.921875 39.589844l.007813.136719c.007812.25.015625.5.015625.75v109.960937c0 5.117188-4.152344 9.265626-9.269532 9.265626zm-138.996093-18.53125h129.730469l-.003907-100.789063c-.007812-.171875-.011719-.34375-.015625-.515625-.316406-20.78125-17.492187-37.691406-38.28125-37.691406h-53.128906c-21.117188 0-38.300781 17.179687-38.300781 38.300781zm0 0"/><path d="m250.320312 389.1875h-111.195312c-5.117188 0-9.269531-4.148438-9.269531-9.265625v-111.195313c0-5.117187 4.148437-9.265624 9.269531-9.265624h111.195312c5.117188 0 9.265626 4.148437 9.265626 9.265624v111.195313c0 5.117187-4.148438 9.265625-9.265626 9.265625zm-101.929687-18.53125h92.664063v-92.664062h-92.664063zm0 0"/><path d="m344.835938 389.1875h-94.515626c-5.117187 0-9.265624-4.148438-9.265624-9.265625v-83.398437c0-5.117188 4.144531-9.265626 9.265624-9.265626h94.515626c5.117187 0 9.269531 4.148438 9.269531 9.265626v83.398437c0 5.117187-4.152344 9.265625-9.269531 9.265625zm-85.25-18.53125h75.984374v-64.867188h-75.984374zm0 0"/><path d="m194.722656 92.664062c-25.546875 0-46.332031-20.785156-46.332031-46.332031s20.785156-46.332031 46.332031-46.332031 46.332032 20.785156 46.332032 46.332031-20.785157 46.332031-46.332032 46.332031zm0-74.132812c-15.328125 0-27.800781 12.472656-27.800781 27.800781s12.472656 27.796875 27.800781 27.796875 27.796875-12.46875 27.796875-27.796875-12.46875-27.800781-27.796875-27.800781zm0 0"/><path d="m301.285156 138.996094c-22.992187 0-41.699218-18.707032-41.699218-41.699219s18.707031-41.699219 41.699218-41.699219c22.992188 0 41.699219 18.707032 41.699219 41.699219s-18.707031 41.699219-41.699219 41.699219zm0-64.863282c-12.773437 0-23.164062 10.390626-23.164062 23.164063s10.390625 23.167969 23.164062 23.167969c12.773438 0 23.167969-10.394532 23.167969-23.167969s-10.394531-23.164063-23.167969-23.164063zm0 0"/><path d="m139.125 305.789062h-111.199219c-5.117187 0-9.265625-4.148437-9.265625-9.265624v-91.429688c0-31.335938 25.496094-56.832031 56.832032-56.832031h38.304687c2.679687 0 5.414063.199219 8.128906.585937 4.613281.664063 8.015625 4.648438 7.949219 9.308594-.003906.171875-.007812.339844-.015625.511719l-.003906.136719v100.652343h9.265625c5.121094 0 9.269531 4.148438 9.269531 9.269531v27.796876c0 5.117187-4.148437 9.265624-9.265625 9.265624zm-101.933594-18.53125h92.664063v-9.265624h-9.265625c-5.117188 0-9.265625-4.148438-9.265625-9.265626v-101.929687h-35.832031c-21.117188 0-38.300782 17.179687-38.300782 38.300781zm0 0"/><path d="m139.125 389.1875h-94.519531c-5.117188 0-9.265625-4.148438-9.265625-9.265625v-83.398437c0-5.117188 4.148437-9.265626 9.265625-9.265626h94.519531c5.117188 0 9.265625 4.148438 9.265625 9.265626v83.398437c0 5.117187-4.148437 9.265625-9.265625 9.265625zm-85.253906-18.53125h75.984375v-64.867188h-75.984375zm0 0"/><path d="m88.15625 138.996094c-22.992188 0-41.695312-18.707032-41.695312-41.699219s18.703124-41.699219 41.695312-41.699219c22.996094 0 41.699219 18.707032 41.699219 41.699219s-18.703125 41.699219-41.699219 41.699219zm0-64.863282c-12.773438 0-23.164062 10.390626-23.164062 23.164063s10.390624 23.167969 23.164062 23.167969c12.777344 0 23.167969-10.394532 23.167969-23.167969s-10.390625-23.164063-23.167969-23.164063zm0 0"/><path d="m194.722656 176.0625c-1.792968 0-3.585937-.519531-5.140625-1.558594l-55.597656-37.0625c-4.257813-2.839844-5.410156-8.59375-2.570313-12.851562 2.835938-4.257813 8.589844-5.40625 12.847657-2.570313l50.460937 33.640625 50.457032-33.640625c4.257812-2.839843 10.011718-1.6875 12.847656 2.570313 2.839844 4.257812 1.691406 10.011718-2.566406 12.851562l-55.601563 37.0625c-1.554687 1.039063-3.34375 1.558594-5.136719 1.558594zm0 0"/><path d="m194.722656 222.394531c-5.117187 0-9.265625-4.148437-9.265625-9.265625v-46.332031c0-5.121094 4.148438-9.269531 9.265625-9.269531 5.117188 0 9.265625 4.148437 9.265625 9.269531v46.332031c0 5.113282-4.148437 9.265625-9.265625 9.265625zm0 0"/><path d="m194.722656 240.925781c-10.21875 0-18.535156-8.3125-18.535156-18.53125s8.316406-18.535156 18.535156-18.535156 18.53125 8.316406 18.53125 18.535156-8.3125 18.53125-18.53125 18.53125zm0 0"/><path d="m296.652344 389.1875c-5.117188 0-9.265625-4.148438-9.265625-9.265625v-55.597656c0-5.117188 4.148437-9.265625 9.265625-9.265625 5.117187 0 9.265625 4.148437 9.265625 9.265625v55.597656c0 5.117187-4.148438 9.265625-9.265625 9.265625zm0 0"/><path d="m92.792969 389.1875c-5.117188 0-9.269531-4.148438-9.269531-9.265625v-55.597656c0-5.117188 4.148437-9.265625 9.269531-9.265625 5.117187 0 9.265625 4.148437 9.265625 9.265625v55.597656c0 5.117187-4.148438 9.265625-9.265625 9.265625zm0 0"/><path d="m194.722656 389.1875c-5.117187 0-9.265625-4.148438-9.265625-9.265625v-83.398437c0-5.117188 4.148438-9.265626 9.265625-9.265626 5.117188 0 9.265625 4.148438 9.265625 9.265626v83.398437c0 5.117187-4.148437 9.265625-9.265625 9.265625zm0 0"/><path d="m389.316406 426.253906h-379.921875c-5.117187 0-9.265625-4.148437-9.265625-9.265625 0-5.117187 4.148438-9.265625 9.265625-9.265625h379.921875c5.117188 0 9.265625 4.148438 9.265625 9.265625 0 5.117188-4.148437 9.265625-9.265625 9.265625zm0 0"/><path d="m319.816406 277.992188c-12.769531 0-23.164062-10.394532-23.164062-23.167969v-23.164063c0-5.117187 4.148437-9.265625 9.265625-9.265625h27.800781c5.117188 0 9.265625 4.144531 9.265625 9.265625v23.164063c0 12.777343-10.390625 23.167969-23.167969 23.167969zm-4.632812-37.066407v13.898438c0 2.558593 2.082031 4.636719 4.632812 4.636719 2.554688 0 4.636719-2.078126 4.636719-4.636719v-13.898438zm0 0"/><path d="m69.625 277.992188c-12.773438 0-23.164062-10.394532-23.164062-23.167969v-23.164063c0-5.117187 4.148437-9.265625 9.265624-9.265625h27.796876c5.121093 0 9.269531 4.144531 9.269531 9.265625v23.164063c0 12.777343-10.394531 23.167969-23.167969 23.167969zm-4.632812-37.066407v13.898438c0 2.558593 2.078124 4.636719 4.632812 4.636719s4.632812-2.078126 4.632812-4.636719v-13.898438zm0 0"/></svg>